<svg width="888" height="888" viewBox="0 0 888 888" fill="none" xmlns="http://www.w3.org/2000/svg">
<path d="M869.783 367.658L732.919 334.314C732.919 334.314 724.42 331.699 713.305 332.135C721.369 324.725 725.509 316.661 725.509 316.661L798.736 196.36C798.736 196.36 805.056 179.361 757.328 130.108C708.075 82.5978 691.076 88.7 691.076 88.7L570.775 161.927C570.775 161.927 562.711 166.067 555.301 174.131C555.737 163.234 553.122 154.517 553.122 154.517L519.778 17.6528C519.778 17.6528 512.15 1.30762 443.718 0C375.286 1.08968 367.658 17.6528 367.658 17.6528L334.314 154.517C334.314 154.517 331.699 163.016 332.135 174.131C324.725 166.067 316.661 161.927 316.661 161.927L196.36 88.7C196.36 88.7 179.361 82.3799 130.108 130.108C82.5978 179.361 88.7 196.36 88.7 196.36L161.927 316.661C161.927 316.661 166.067 324.725 174.131 332.135C163.234 331.699 154.517 334.314 154.517 334.314L17.6528 367.658C17.6528 367.658 1.30762 375.286 0 443.718C1.08968 512.15 17.6528 519.778 17.6528 519.778L154.517 553.122C154.517 553.122 163.016 555.737 174.131 555.301C166.067 562.711 161.927 570.775 161.927 570.775L88.7 691.076C88.7 691.076 82.3799 708.075 130.108 757.328C179.361 804.838 196.36 798.736 196.36 798.736L316.661 725.509C316.661 725.509 324.725 721.369 332.135 713.305C331.699 724.202 334.314 732.919 334.314 732.919L367.658 869.783C367.658 869.783 375.286 886.128 443.718 887.436C512.15 886.346 519.778 869.783 519.778 869.783L553.122 732.919C553.122 732.919 555.737 724.42 555.301 713.305C562.711 721.369 570.775 725.509 570.775 725.509L691.076 798.736C691.076 798.736 708.075 805.056 757.328 757.328C804.838 708.075 798.736 691.076 798.736 691.076L725.509 570.775C725.509 570.775 721.369 562.711 713.305 555.301C724.202 555.737 732.919 553.122 732.919 553.122L869.783 519.778C869.783 519.778 886.128 512.15 887.436 443.718C886.346 375.286 869.783 367.658 869.783 367.658ZM591.261 324.507C605.862 321.456 618.503 326.686 632.233 331.263C646.181 336.058 660.564 340.634 675.166 343.685C678.435 344.339 681.486 344.339 684.319 344.339C682.14 346.301 679.961 348.48 678.217 351.313C669.936 363.735 662.962 377.03 656.642 390.324C650.321 403.182 645.091 415.822 632.669 424.104C621.554 431.514 608.478 435.001 595.184 435.001C576.441 435.001 558.134 433.911 544.404 432.821C550.507 419.527 553.776 407.323 550.289 400.131C547.674 392.503 536.777 386.183 522.829 380.952C531.546 370.491 543.751 356.979 557.045 343.467C566.416 334.096 578.185 327.122 591.261 324.507ZM463.768 254.985C472.05 242.563 484.69 237.115 497.548 231.012C510.842 224.474 524.354 217.718 536.559 209.437C539.392 207.475 541.353 205.514 543.533 203.334C543.533 206.386 543.533 209.219 544.187 212.488C547.02 227.089 551.596 241.473 556.609 255.421C561.404 268.933 566.416 281.573 563.365 296.393C560.75 309.469 553.994 321.238 544.404 330.609C531.11 343.903 517.38 356.108 506.919 364.825C501.907 351.095 495.587 340.198 487.959 337.583C480.767 333.878 468.563 337.147 455.051 343.467C453.961 329.955 452.871 311.649 452.871 292.688C452.871 279.394 456.358 266.318 463.768 255.203V254.985ZM331.263 255.421C336.058 241.473 340.634 227.089 343.685 212.488C344.339 209.219 344.339 206.168 344.339 203.334C346.301 205.514 348.48 207.693 351.313 209.437C363.735 217.718 377.03 224.692 390.324 231.012C403.182 237.332 415.822 242.563 424.104 254.985C431.514 266.1 435.001 279.176 435.001 292.47C435.001 311.213 433.911 329.519 432.821 343.249C419.527 337.147 407.323 333.878 400.131 337.365C392.503 339.98 386.183 350.877 380.952 364.825C370.491 356.108 356.979 343.903 343.467 330.609C334.096 321.238 327.122 309.469 324.507 296.393C321.456 281.791 326.686 269.151 331.263 255.421ZM255.421 331.263C268.933 326.468 281.573 321.456 296.393 324.507C309.469 327.122 321.238 333.878 330.609 343.467C343.903 356.761 356.108 370.491 364.825 380.952C351.095 385.965 340.198 392.285 337.583 399.913C333.878 407.105 337.147 419.309 343.467 432.821C329.955 433.911 311.649 435.001 292.688 435.001C279.394 435.001 266.318 431.514 255.203 424.104C242.781 415.822 237.332 403.182 231.23 390.324C224.692 377.03 217.936 363.517 209.655 351.313C207.693 348.48 205.732 346.518 203.552 344.339C206.603 344.339 209.437 344.339 212.706 343.685C227.307 340.852 241.691 336.275 255.639 331.263H255.421ZM296.175 563.147C281.573 566.198 268.933 560.968 255.203 556.391C241.255 551.596 226.872 547.02 212.27 543.969C209.001 543.315 205.95 543.315 203.116 543.315C205.296 541.353 207.475 539.174 209.219 536.341C217.5 523.918 224.474 510.624 230.794 497.33C237.115 484.472 242.345 471.832 254.767 463.55C265.882 456.14 278.958 452.653 292.252 452.653C310.995 452.653 329.301 453.743 343.031 454.833C336.929 468.127 333.66 480.331 337.147 487.523C339.762 495.151 350.659 501.471 364.607 506.702C355.89 517.162 343.685 530.674 330.391 544.187C321.02 553.558 309.251 560.532 296.175 563.147ZM423.886 632.451C415.604 644.873 402.964 650.321 390.106 656.424C376.812 662.962 363.3 669.718 351.095 677.999C348.262 679.961 346.301 681.922 344.121 684.102C344.121 681.05 344.121 678.217 343.467 674.948C340.634 660.346 336.058 645.963 331.045 632.015C326.25 618.503 321.238 605.862 324.289 591.043C326.904 577.967 333.66 566.198 343.249 556.827C356.544 543.533 370.273 531.328 380.734 522.611C385.747 536.341 392.067 547.238 399.695 549.853C406.887 553.558 419.091 550.289 432.603 543.969C433.693 557.481 434.783 575.787 434.783 594.748C434.783 608.042 431.296 621.118 423.886 632.233V632.451ZM556.391 632.233C551.596 646.181 547.02 660.564 543.969 675.166C543.315 678.435 543.315 681.486 543.315 684.319C541.353 682.14 539.174 679.961 536.341 678.217C523.918 669.936 510.624 662.962 497.33 656.642C484.472 650.321 471.832 645.091 463.55 632.669C456.14 621.554 452.653 608.478 452.653 595.184C452.653 576.441 453.743 558.134 454.833 544.404C468.127 550.507 480.331 553.776 487.523 550.289C495.151 547.674 501.471 536.777 506.702 522.829C517.162 531.546 530.674 543.751 544.187 557.045C553.558 566.416 560.532 578.185 563.147 591.261C566.198 605.862 560.968 618.503 556.391 632.233ZM632.233 556.391C618.721 561.186 606.08 566.198 591.261 563.147C578.185 560.532 566.416 553.776 557.045 544.187C543.751 530.892 531.546 517.162 522.829 506.702C536.559 501.689 547.456 495.369 550.071 487.741C553.776 480.549 550.507 468.345 544.187 454.833C557.699 453.743 576.005 452.653 594.966 452.653C608.26 452.653 621.336 456.14 632.451 463.55C644.873 471.832 650.321 484.472 656.424 497.33C662.962 510.624 669.718 524.136 677.999 536.341C679.961 539.174 681.922 541.135 684.102 543.315C681.05 543.315 678.217 543.315 674.948 543.969C660.346 546.802 645.963 551.378 632.015 556.391H632.233Z" fill="#DD5472"/>
</svg>
