<svg width="44" height="44" viewBox="0 0 44 44" fill="none" xmlns="http://www.w3.org/2000/svg">
<path d="M3.66675 17.4167C3.66679 15.3765 4.28567 13.3844 5.44166 11.7034C6.59765 10.0224 8.23636 8.73153 10.1414 8.00139C12.0464 7.27125 14.128 7.13614 16.1114 7.61391C18.0948 8.09167 19.8867 9.15984 21.2502 10.6773C21.3463 10.78 21.4624 10.8619 21.5914 10.9179C21.7204 10.9738 21.8595 11.0027 22.0001 11.0027C22.1407 11.0027 22.2798 10.9738 22.4088 10.9179C22.5378 10.8619 22.6539 10.78 22.7499 10.6773C24.1092 9.14998 25.9015 8.07283 27.8881 7.58926C29.8747 7.10569 31.9615 7.23863 33.8707 7.97038C35.7799 8.70213 37.421 9.99799 38.5755 11.6855C39.73 13.373 40.3432 15.3721 40.3334 17.4167C40.3334 21.615 37.5834 24.75 34.8334 27.5L24.7647 37.2405C24.4231 37.6328 24.002 37.948 23.5292 38.165C23.0564 38.3821 22.5428 38.496 22.0226 38.4993C21.5024 38.5026 20.9874 38.3952 20.5119 38.1842C20.0364 37.9731 19.6113 37.6633 19.2647 37.2753L9.16675 27.5C6.41675 24.75 3.66675 21.6333 3.66675 17.4167Z" stroke="white" stroke-width="2" stroke-linecap="round" stroke-linejoin="round"/>
</svg>
