<svg width="52" height="52" viewBox="0 0 52 52" fill="none" xmlns="http://www.w3.org/2000/svg">
<path d="M25.9999 13V4.33337H17.3333" stroke="white" stroke-width="2" stroke-linecap="round" stroke-linejoin="round"/>
<path d="M32.5 23.8334V28.1667" stroke="white" stroke-width="2" stroke-linecap="round" stroke-linejoin="round"/>
<path d="M4.33325 26H8.66658" stroke="white" stroke-width="2" stroke-linecap="round" stroke-linejoin="round"/>
<path d="M43.3333 26H47.6666" stroke="white" stroke-width="2" stroke-linecap="round" stroke-linejoin="round"/>
<path d="M43.3334 34.6667C43.3334 35.8159 42.8769 36.9181 42.0642 37.7308C41.2515 38.5435 40.1494 39 39.0001 39H19.1274C17.9782 39.0002 16.8762 39.457 16.0637 40.2697L11.2927 45.0407C11.0776 45.2558 10.8035 45.4022 10.5051 45.4616C10.2068 45.5209 9.89748 45.4905 9.61641 45.374C9.33534 45.2576 9.0951 45.0605 8.92607 44.8075C8.75703 44.5546 8.66679 44.2572 8.66675 43.953V17.3333C8.66675 16.1841 9.12329 15.0819 9.93595 14.2692C10.7486 13.4565 11.8508 13 13.0001 13H39.0001C40.1494 13 41.2515 13.4565 42.0642 14.2692C42.8769 15.0819 43.3334 16.1841 43.3334 17.3333V34.6667Z" stroke="white" stroke-width="2" stroke-linecap="round" stroke-linejoin="round"/>
<path d="M19.5 23.8334V28.1667" stroke="white" stroke-width="2" stroke-linecap="round" stroke-linejoin="round"/>
</svg>
