<svg width="595" height="595" viewBox="0 0 595 595" fill="none" xmlns="http://www.w3.org/2000/svg">
<path d="M348.487 287.797L331.945 283.767C331.945 283.767 330.917 283.451 329.574 283.504C330.549 282.608 331.049 281.634 331.049 281.634L339.9 267.093C339.9 267.093 340.663 265.039 334.895 259.086C328.942 253.344 326.887 254.081 326.887 254.081L312.347 262.932C312.347 262.932 311.372 263.432 310.477 264.407C310.529 263.09 310.213 262.036 310.213 262.036L306.183 245.494C306.183 245.494 305.261 243.518 296.99 243.36C288.719 243.492 287.797 245.494 287.797 245.494L283.767 262.036C283.767 262.036 283.451 263.063 283.504 264.407C282.608 263.432 281.634 262.932 281.634 262.932L267.093 254.081C267.093 254.081 265.039 253.317 259.086 259.086C253.344 265.039 254.081 267.093 254.081 267.093L262.932 281.634C262.932 281.634 263.432 282.608 264.407 283.504C263.09 283.451 262.036 283.767 262.036 283.767L245.494 287.797C245.494 287.797 243.518 288.719 243.36 296.99C243.492 305.261 245.494 306.183 245.494 306.183L262.036 310.213C262.036 310.213 263.063 310.529 264.407 310.477C263.432 311.372 262.932 312.347 262.932 312.347L254.081 326.887C254.081 326.887 253.317 328.942 259.086 334.895C265.039 340.637 267.093 339.9 267.093 339.9L281.634 331.049C281.634 331.049 282.608 330.549 283.504 329.574C283.451 330.891 283.767 331.945 283.767 331.945L287.797 348.487C287.797 348.487 288.719 350.462 296.99 350.62C305.261 350.489 306.183 348.487 306.183 348.487L310.213 331.945C310.213 331.945 310.529 330.917 310.477 329.574C311.372 330.549 312.347 331.049 312.347 331.049L326.887 339.9C326.887 339.9 328.942 340.663 334.895 334.895C340.637 328.942 339.9 326.887 339.9 326.887L331.049 312.347C331.049 312.347 330.549 311.372 329.574 310.477C330.891 310.529 331.945 310.213 331.945 310.213L348.487 306.183C348.487 306.183 350.462 305.261 350.62 296.99C350.489 288.719 348.487 287.797 348.487 287.797ZM314.823 282.582C316.588 282.213 318.116 282.845 319.775 283.398C321.461 283.978 323.199 284.531 324.964 284.9C325.359 284.979 325.728 284.979 326.071 284.979C325.807 285.216 325.544 285.479 325.333 285.822C324.332 287.323 323.489 288.93 322.725 290.537C321.961 292.091 321.329 293.619 319.828 294.62C318.484 295.515 316.904 295.937 315.297 295.937C313.032 295.937 310.819 295.805 309.16 295.673C309.897 294.066 310.292 292.591 309.871 291.722C309.555 290.8 308.238 290.036 306.552 289.404C307.606 288.14 309.081 286.507 310.688 284.874C311.82 283.741 313.243 282.898 314.823 282.582ZM299.414 274.179C300.415 272.678 301.942 272.019 303.496 271.282C305.103 270.491 306.736 269.675 308.211 268.674C308.554 268.437 308.791 268.2 309.054 267.936C309.054 268.305 309.054 268.648 309.133 269.043C309.476 270.808 310.029 272.546 310.635 274.232C311.214 275.865 311.82 277.393 311.451 279.184C311.135 280.764 310.319 282.187 309.16 283.319C307.553 284.926 305.893 286.401 304.629 287.455C304.023 285.795 303.259 284.478 302.337 284.162C301.468 283.715 299.993 284.11 298.36 284.874C298.228 283.24 298.097 281.028 298.097 278.736C298.097 277.129 298.518 275.549 299.414 274.205V274.179ZM283.398 274.232C283.978 272.546 284.531 270.808 284.9 269.043C284.979 268.648 284.979 268.279 284.979 267.936C285.216 268.2 285.479 268.463 285.822 268.674C287.323 269.675 288.93 270.518 290.537 271.282C292.091 272.046 293.619 272.678 294.62 274.179C295.515 275.523 295.937 277.103 295.937 278.71C295.937 280.975 295.805 283.188 295.673 284.847C294.066 284.11 292.591 283.715 291.722 284.136C290.8 284.452 290.036 285.769 289.404 287.455C288.14 286.401 286.507 284.926 284.874 283.319C283.741 282.187 282.898 280.764 282.582 279.184C282.213 277.419 282.845 275.891 283.398 274.232ZM274.232 283.398C275.865 282.819 277.393 282.213 279.184 282.582C280.764 282.898 282.187 283.715 283.319 284.874C284.926 286.48 286.401 288.14 287.455 289.404C285.795 290.01 284.478 290.774 284.162 291.696C283.715 292.565 284.11 294.04 284.874 295.673C283.24 295.805 281.028 295.937 278.736 295.937C277.129 295.937 275.549 295.515 274.205 294.62C272.704 293.619 272.046 292.091 271.308 290.537C270.518 288.93 269.701 287.297 268.7 285.822C268.463 285.479 268.226 285.242 267.963 284.979C268.331 284.979 268.674 284.979 269.069 284.9C270.834 284.557 272.572 284.004 274.258 283.398H274.232ZM279.158 311.425C277.393 311.794 275.865 311.162 274.205 310.609C272.52 310.029 270.781 309.476 269.016 309.107C268.621 309.028 268.252 309.028 267.91 309.028C268.173 308.791 268.437 308.528 268.648 308.185C269.649 306.684 270.491 305.077 271.255 303.47C272.019 301.916 272.651 300.388 274.153 299.387C275.496 298.492 277.077 298.07 278.683 298.07C280.949 298.07 283.161 298.202 284.821 298.334C284.083 299.94 283.688 301.416 284.11 302.285C284.426 303.207 285.743 303.971 287.429 304.603C286.375 305.867 284.9 307.5 283.293 309.133C282.16 310.266 280.738 311.109 279.158 311.425ZM294.593 319.801C293.592 321.303 292.065 321.961 290.51 322.699C288.904 323.489 287.271 324.306 285.795 325.307C285.453 325.544 285.216 325.781 284.953 326.044C284.953 325.675 284.953 325.333 284.874 324.938C284.531 323.173 283.978 321.435 283.372 319.749C282.793 318.116 282.187 316.588 282.556 314.797C282.872 313.216 283.688 311.794 284.847 310.661C286.454 309.054 288.113 307.579 289.378 306.526C289.984 308.185 290.748 309.502 291.669 309.818C292.539 310.266 294.014 309.871 295.647 309.107C295.779 310.74 295.91 312.953 295.91 315.244C295.91 316.851 295.489 318.432 294.593 319.775V319.801ZM310.609 319.775C310.029 321.461 309.476 323.199 309.107 324.964C309.028 325.359 309.028 325.728 309.028 326.071C308.791 325.807 308.528 325.544 308.185 325.333C306.684 324.332 305.077 323.489 303.47 322.725C301.916 321.961 300.388 321.329 299.387 319.828C298.492 318.484 298.07 316.904 298.07 315.297C298.07 313.032 298.202 310.819 298.334 309.16C299.94 309.897 301.416 310.292 302.285 309.871C303.207 309.555 303.971 308.238 304.603 306.552C305.867 307.606 307.5 309.081 309.133 310.688C310.266 311.82 311.109 313.243 311.425 314.823C311.794 316.588 311.162 318.116 310.609 319.775ZM319.775 310.609C318.142 311.188 316.614 311.794 314.823 311.425C313.243 311.109 311.82 310.292 310.688 309.133C309.081 307.527 307.606 305.867 306.552 304.603C308.211 303.997 309.529 303.233 309.845 302.311C310.292 301.442 309.897 299.967 309.133 298.334C310.767 298.202 312.979 298.07 315.271 298.07C316.878 298.07 318.458 298.492 319.801 299.387C321.303 300.388 321.961 301.916 322.699 303.47C323.489 305.077 324.306 306.71 325.307 308.185C325.544 308.528 325.781 308.765 326.044 309.028C325.675 309.028 325.333 309.028 324.938 309.107C323.173 309.45 321.435 310.003 319.749 310.609H319.775Z" fill="#DC4E5F"/>
<g clip-path="url(#clip0_4_18)">
<path d="M297.514 595C251.783 594.245 246.217 583.309 245.994 582.833L223.59 491.121C223.534 490.953 222.052 486.142 222.052 479.681C217.493 484.24 213.017 486.589 212.822 486.701L132.297 535.62C131.709 535.844 120.018 539.648 87.1536 507.874C55.352 475.01 59.1559 463.319 59.3237 462.843L108.327 382.15C108.411 381.983 110.76 377.535 115.319 372.948C108.858 372.948 104.075 371.466 103.852 371.382L12.3066 349.034C11.7193 348.783 0.783102 343.189 0.0279193 297.486C0.783102 251.756 11.7193 246.19 12.1948 245.966L103.907 223.562C104.075 223.506 108.886 222.024 115.347 222.024C110.788 217.465 108.439 212.99 108.327 212.794L59.4076 132.269C59.1839 131.654 55.38 119.99 87.1536 87.1258C120.018 55.3242 131.709 59.1281 132.185 59.2959L212.878 108.299C213.045 108.383 217.493 110.732 222.08 115.291C222.08 108.83 223.562 104.019 223.646 103.796L245.994 12.2508C246.245 11.6634 251.839 0.727267 297.542 -0.027916C343.272 0.727267 348.838 11.6634 349.062 12.1389L371.466 103.852C371.522 104.019 373.004 108.83 373.004 115.291C377.563 110.704 382.038 108.383 382.234 108.271L462.759 59.3518C463.346 59.1281 475.038 55.3242 507.902 87.0978C539.704 119.962 535.9 131.654 535.732 132.129L486.729 212.822C486.645 212.99 484.296 217.437 479.737 222.024C486.198 222.024 490.981 223.506 491.204 223.59L582.749 245.938C582.749 245.938 582.833 245.938 582.889 245.994C583.365 246.218 594.301 251.784 595.028 297.486C594.273 343.217 583.337 348.783 582.889 349.006L491.176 371.41C491.009 371.466 486.198 372.948 479.737 372.948C484.296 377.507 486.645 381.983 486.757 382.178L535.676 462.703C535.9 463.319 539.704 474.982 507.93 507.846C475.066 539.648 463.374 535.872 462.899 535.676L382.206 486.673C382.038 486.589 377.591 484.24 373.004 479.681C373.004 486.142 371.522 490.953 371.438 491.176L349.09 582.721C348.838 583.309 343.244 594.245 297.542 595H297.514ZM247.308 582.386C247.308 582.386 253.126 592.874 297.514 593.602C341.958 592.874 347.692 582.358 347.748 582.246L370.067 490.813C370.067 490.813 371.857 485.051 371.55 477.947C371.55 477.667 371.718 477.387 371.969 477.276C372.249 477.164 372.557 477.248 372.753 477.443C377.535 482.702 382.794 485.471 382.85 485.499L463.458 534.474C463.458 534.474 475.038 537.718 506.895 506.895C537.802 474.954 534.418 463.458 534.39 463.347L485.499 382.906C485.499 382.906 482.702 377.563 477.443 372.781C477.219 372.585 477.164 372.277 477.275 371.997C477.387 371.746 477.639 371.578 477.919 371.578H477.947C485.051 371.886 490.729 370.151 490.785 370.123L582.414 347.748C582.414 347.748 592.902 342.014 593.629 297.542C592.93 254.636 583.085 247.812 582.33 247.336L490.841 224.989C490.841 224.989 485.051 223.198 477.975 223.534H477.947C477.667 223.534 477.415 223.366 477.303 223.115C477.191 222.835 477.275 222.527 477.471 222.331C482.73 217.521 485.498 212.29 485.526 212.234L534.501 131.626C534.501 131.626 537.83 120.13 506.923 88.1886C474.982 57.2821 463.486 60.6664 463.374 60.6944L382.934 109.585C382.934 109.585 377.591 112.41 372.808 117.641C372.613 117.864 372.305 117.92 372.025 117.809C371.746 117.697 371.578 117.417 371.606 117.137C371.913 110.033 370.179 104.355 370.151 104.299L347.776 12.6703C347.776 12.6703 341.958 2.18169 297.57 1.45448C253.126 2.18169 247.392 12.6983 247.336 12.8102L225.016 104.243C225.016 104.243 223.226 110.005 223.562 117.109C223.562 117.389 223.394 117.669 223.142 117.781C222.891 117.892 222.555 117.837 222.359 117.613C217.548 112.354 212.318 109.585 212.262 109.557L131.653 60.5825C131.653 60.5825 120.074 57.338 88.2165 88.1606C57.3099 120.102 60.6943 131.598 60.7222 131.71L109.613 212.15C109.613 212.15 112.41 217.493 117.669 222.276C117.892 222.471 117.948 222.779 117.836 223.059C117.725 223.338 117.389 223.506 117.165 223.478C110.061 223.143 104.383 224.905 104.327 224.933L12.6982 247.308C12.6982 247.308 2.20956 253.042 1.48235 297.514C2.20956 341.958 12.7262 347.692 12.8381 347.748L104.271 370.068C104.271 370.068 110.005 371.858 117.137 371.55C117.389 371.55 117.697 371.718 117.808 371.969C117.92 372.221 117.836 372.557 117.641 372.753C112.382 377.535 109.613 382.794 109.585 382.85L60.6103 463.458C60.6103 463.458 57.282 474.954 88.1885 506.895C120.13 537.802 131.625 534.418 131.737 534.39L212.178 485.499C212.178 485.499 217.521 482.674 222.303 477.443C222.499 477.22 222.807 477.164 223.086 477.276C223.366 477.387 223.534 477.667 223.506 477.947C223.198 485.051 224.932 490.729 224.96 490.785L247.336 582.414L247.308 582.386ZM364.166 459.179C363.97 459.179 363.802 459.095 363.662 458.955C362.236 457.473 360.893 456.13 359.159 454.956C350.74 449.278 341.65 444.663 333.091 440.495L331.189 439.572C323.106 435.685 315.498 432.02 310.24 424.133C305.401 416.889 302.884 408.078 302.884 398.681C302.884 388.248 303.416 376.808 304.367 364.697C304.367 364.474 304.506 364.25 304.702 364.138C304.898 364.026 305.15 364.026 305.345 364.11C315.331 368.697 322.463 370.04 326.602 368.082C331.05 366.627 335.189 360.586 339.049 350.153C339.133 349.929 339.301 349.789 339.524 349.706C339.748 349.65 339.972 349.706 340.168 349.845C349.426 357.733 357.845 365.453 365.229 372.809C371.885 379.437 376.333 387.465 378.039 395.995C379.913 405.281 377.088 413.253 374.123 421.728L373.424 423.741C370.319 432.72 367.159 442.397 365.201 452.382C364.809 454.452 364.809 456.326 364.837 458.396C364.837 458.676 364.669 458.955 364.418 459.067C364.334 459.095 364.25 459.123 364.138 459.123L364.166 459.179ZM305.681 365.844C304.758 377.563 304.283 388.611 304.283 398.709C304.283 407.855 306.716 416.385 311.387 423.406C316.421 430.986 323.889 434.566 331.777 438.342L333.707 439.265C342.321 443.432 351.44 448.075 359.942 453.809C361.285 454.732 362.404 455.683 363.467 456.746C363.467 455.235 363.551 453.781 363.886 452.187C365.844 442.118 369.033 432.384 372.165 423.35L372.864 421.336C375.773 413.057 378.514 405.253 376.724 396.359C375.074 388.108 370.767 380.332 364.306 373.871C357.145 366.739 349.006 359.271 340.084 351.636C336.168 361.928 331.833 367.914 327.19 369.424C322.882 371.466 315.666 370.291 305.737 365.844H305.681ZM230.806 459.179C230.806 459.179 230.638 459.179 230.526 459.123C230.275 459.011 230.079 458.76 230.107 458.452C230.135 456.382 230.135 454.508 229.743 452.438C227.785 442.453 224.653 432.776 221.52 423.797L220.821 421.812C217.856 413.365 215.059 405.365 216.905 396.079C218.611 387.549 223.059 379.521 229.715 372.892C237.099 365.536 245.546 357.817 254.804 349.929C254.972 349.79 255.224 349.734 255.447 349.789C255.671 349.845 255.839 350.013 255.923 350.237C259.727 360.558 263.838 366.543 268.146 368.082C272.313 370.179 279.501 368.865 289.626 364.222C289.822 364.138 290.074 364.138 290.27 364.25C290.466 364.362 290.605 364.557 290.605 364.809C291.277 373.088 292.06 385.731 292.088 398.764C292.088 408.19 289.571 416.973 284.732 424.217C279.473 432.104 271.866 435.768 263.782 439.656L261.88 440.579C253.322 444.719 244.232 449.362 235.813 455.04C234.079 456.214 232.736 457.557 231.31 459.039C231.17 459.179 231.002 459.263 230.806 459.263V459.179ZM254.972 351.608C246.05 359.243 237.882 366.739 230.722 373.871C224.261 380.304 219.954 388.08 218.304 396.359C216.514 405.281 219.255 413.085 222.163 421.364L222.863 423.35C225.995 432.384 229.156 442.118 231.142 452.187C231.449 453.781 231.533 455.263 231.561 456.746C232.624 455.683 233.743 454.704 235.086 453.809C243.588 448.075 252.734 443.432 261.321 439.265L263.251 438.342C271.138 434.538 278.606 430.958 283.641 423.406C288.312 416.385 290.773 407.855 290.745 398.709C290.717 386.206 289.99 374.095 289.347 365.844C279.306 370.347 272.006 371.522 267.642 369.312C263.139 367.718 258.888 361.761 255 351.608H254.972ZM402.121 378.654C400.163 378.654 398.149 378.458 396.051 378.067C387.521 376.361 379.493 371.914 372.864 365.257C363.69 356.027 355.299 346.517 349.901 340.168C349.761 340 349.705 339.748 349.761 339.525C349.817 339.301 349.985 339.133 350.209 339.049C360.53 335.245 366.515 331.134 368.054 326.826C370.151 322.659 368.837 315.471 364.194 305.346C364.11 305.15 364.11 304.898 364.222 304.702C364.334 304.507 364.529 304.367 364.781 304.367C376.892 303.388 388.332 302.884 398.736 302.884H398.848C408.218 302.884 416.973 305.43 424.189 310.24C432.076 315.499 435.74 323.106 439.628 331.19L440.551 333.092C444.691 341.65 449.306 350.712 455.011 359.159C456.186 360.921 457.529 362.236 459.011 363.662C459.207 363.858 459.291 364.166 459.179 364.446C459.067 364.725 458.815 364.837 458.508 364.865C456.438 364.809 454.564 364.837 452.494 365.229C442.509 367.187 432.831 370.319 423.853 373.452L421.839 374.151C415.267 376.445 409.001 378.654 402.177 378.654H402.121ZM351.607 340.028C357.006 346.349 365.061 355.439 373.843 364.278C380.276 370.739 388.052 375.046 396.331 376.696C405.253 378.486 413.057 375.745 421.336 372.837L423.35 372.137C432.384 369.005 442.117 365.844 452.187 363.858C453.781 363.551 455.263 363.467 456.746 363.439C455.683 362.376 454.704 361.285 453.809 359.915C448.075 351.384 443.432 342.266 439.265 333.679L438.342 331.749C434.538 323.862 430.958 316.394 423.406 311.359C416.413 306.716 407.91 304.255 398.82 304.255H398.708C388.583 304.255 377.535 304.758 365.844 305.653C370.347 315.694 371.522 322.994 369.312 327.33C367.718 331.833 361.76 336.084 351.607 339.972V340.028ZM192.851 378.654C186.027 378.654 179.761 376.445 173.189 374.151L171.175 373.452C162.196 370.347 152.519 367.187 142.534 365.229C140.464 364.837 138.59 364.809 136.52 364.865C136.241 364.837 135.961 364.697 135.849 364.446C135.737 364.194 135.793 363.886 136.017 363.662C137.499 362.236 138.842 360.893 140.016 359.159C145.694 350.74 150.309 341.65 154.477 333.092L155.4 331.19C159.288 323.106 162.952 315.499 170.839 310.24C178.055 305.43 186.81 302.884 196.18 302.884H196.291C206.724 302.884 218.164 303.416 230.275 304.367C230.498 304.367 230.722 304.507 230.834 304.702C230.946 304.898 230.974 305.15 230.862 305.346C226.247 315.331 224.933 322.491 226.89 326.603C228.373 331.022 234.386 335.189 244.819 339.049C245.043 339.133 245.183 339.301 245.266 339.525C245.35 339.748 245.266 339.972 245.127 340.168C239.728 346.517 231.338 356.027 222.163 365.257C215.535 371.914 207.507 376.361 198.977 378.067C196.907 378.486 194.893 378.654 192.907 378.654H192.851ZM138.254 363.467C139.765 363.467 141.219 363.551 142.813 363.886C152.882 365.844 162.616 369.033 171.65 372.165L173.664 372.865C181.943 375.773 189.719 378.486 198.641 376.724C206.892 375.074 214.668 370.767 221.129 364.306C229.911 355.467 237.966 346.377 243.365 340.056C233.1 336.14 227.114 331.805 225.576 327.162C223.506 322.855 224.709 315.638 229.156 305.709C217.604 304.814 206.249 304.311 196.291 304.311H196.18C187.089 304.311 178.587 306.772 171.594 311.415C164.014 316.45 160.434 323.917 156.658 331.805L155.735 333.735C151.568 342.35 146.925 351.468 141.191 359.97C140.296 361.313 139.317 362.432 138.254 363.495V363.467ZM398.82 292.116H398.708C388.276 292.116 376.836 291.585 364.725 290.634C364.501 290.634 364.278 290.494 364.166 290.298C364.054 290.102 364.026 289.85 364.138 289.655C368.753 279.669 370.067 272.509 368.11 268.398C366.627 263.978 360.614 259.811 350.181 255.951C349.957 255.867 349.817 255.699 349.733 255.476C349.65 255.252 349.733 255.028 349.873 254.832C357.761 245.574 365.48 237.155 372.836 229.771C379.465 223.115 387.493 218.667 396.023 216.961C405.309 215.087 413.309 217.912 421.755 220.877L423.741 221.576C432.72 224.681 442.397 227.841 452.382 229.799C454.452 230.191 456.326 230.219 458.396 230.163C458.703 230.163 458.955 230.331 459.067 230.583C459.179 230.862 459.123 231.17 458.899 231.366C457.417 232.792 456.074 234.107 454.9 235.869C449.222 244.316 444.607 253.378 440.439 261.937L439.516 263.839C435.628 271.922 431.964 279.53 424.077 284.788C416.861 289.599 408.106 292.144 398.736 292.144L398.82 292.116ZM365.816 289.319C377.368 290.214 388.723 290.717 398.68 290.717H398.792C407.883 290.717 416.385 288.256 423.378 283.613C430.958 278.579 434.538 271.111 438.314 263.223L439.237 261.293C443.404 252.707 448.047 243.588 453.781 235.058C454.676 233.715 455.683 232.596 456.718 231.533C455.207 231.533 453.753 231.45 452.159 231.114C442.089 229.156 432.356 225.968 423.322 222.835L421.308 222.136C413.029 219.227 405.225 216.486 396.303 218.276C388.024 219.926 380.276 224.233 373.815 230.694C366.683 237.855 359.215 245.994 351.579 254.944C361.844 258.86 367.83 263.195 369.368 267.838C371.438 272.146 370.235 279.362 365.788 289.291L365.816 289.319ZM196.18 292.116C186.81 292.116 178.027 289.571 170.839 284.76C162.952 279.502 159.288 271.894 155.4 263.811L154.477 261.909C150.337 253.35 145.694 244.26 140.016 235.841C138.842 234.079 137.499 232.764 136.017 231.338C135.821 231.142 135.737 230.834 135.849 230.555C135.961 230.275 136.241 230.135 136.52 230.135C138.59 230.191 140.464 230.163 142.534 229.771C152.519 227.814 162.196 224.681 171.175 221.548L173.161 220.849C181.607 217.884 189.607 215.087 198.893 216.933C207.423 218.639 215.451 223.087 222.08 229.743C229.436 237.127 237.155 245.574 245.043 254.832C245.183 255 245.239 255.252 245.183 255.476C245.127 255.699 244.959 255.867 244.735 255.951C234.414 259.755 228.429 263.866 226.89 268.174C224.793 272.341 226.107 279.53 230.75 289.655C230.834 289.85 230.834 290.102 230.722 290.298C230.61 290.494 230.415 290.634 230.163 290.634C218.052 291.612 206.612 292.116 196.208 292.116H196.096H196.18ZM138.254 231.533C139.317 232.596 140.296 233.687 141.191 235.058C146.925 243.56 151.568 252.679 155.735 261.293L156.658 263.223C160.462 271.111 164.042 278.579 171.594 283.613C178.587 288.256 187.061 290.717 196.18 290.717H196.291C206.389 290.717 217.465 290.214 229.156 289.319C224.653 279.278 223.478 271.978 225.688 267.642C227.282 263.139 233.239 258.888 243.393 255C235.757 246.078 228.261 237.911 221.129 230.75C214.696 224.289 206.92 219.982 198.641 218.332C189.719 216.542 181.915 219.283 173.636 222.192L171.65 222.891C162.616 226.023 152.882 229.184 142.813 231.17C141.219 231.478 139.737 231.561 138.254 231.589V231.533ZM339.72 245.267C339.72 245.267 339.608 245.267 339.552 245.267C339.329 245.211 339.161 245.043 339.077 244.819C335.273 234.498 331.162 228.513 326.854 226.974C322.687 224.877 315.471 226.191 305.373 230.834C305.15 230.918 304.926 230.918 304.73 230.806C304.534 230.694 304.394 230.499 304.394 230.247C303.416 218.136 302.912 206.696 302.912 196.292C302.912 186.866 305.429 178.083 310.24 170.839C315.498 162.952 323.106 159.288 331.189 155.4L333.091 154.477C341.65 150.337 350.712 145.694 359.159 140.017C360.893 138.842 362.236 137.527 363.662 136.017C363.858 135.821 364.166 135.737 364.446 135.849C364.697 135.961 364.893 136.213 364.865 136.52C364.837 138.59 364.837 140.464 365.229 142.534C367.187 152.547 370.347 162.224 373.452 171.175L374.151 173.189C377.116 181.635 379.913 189.635 378.067 198.921C376.361 207.452 371.913 215.479 365.257 222.108C357.957 229.38 349.286 237.323 340.168 245.071C340.028 245.183 339.888 245.239 339.72 245.239V245.267ZM322.183 224.597C324.225 224.597 325.959 224.961 327.386 225.66C331.889 227.254 336.14 233.212 340.028 243.365C348.838 235.841 357.201 228.149 364.278 221.129C370.739 214.696 375.046 206.92 376.696 198.641C378.486 189.719 375.745 181.915 372.836 173.664L372.137 171.65C369.005 162.644 365.844 152.911 363.858 142.813C363.55 141.219 363.467 139.737 363.439 138.254C362.376 139.317 361.257 140.296 359.914 141.191C351.412 146.925 342.266 151.568 333.679 155.736L331.749 156.659C323.861 160.462 316.394 164.043 311.359 171.594C306.688 178.615 304.227 187.146 304.255 196.264C304.255 206.361 304.758 217.437 305.653 229.128C312.422 226.107 317.932 224.569 322.127 224.569L322.183 224.597ZM255.28 245.267C255.112 245.267 254.944 245.211 254.832 245.099C245.574 237.211 237.127 229.492 229.771 222.136C223.114 215.507 218.667 207.48 216.961 198.949C215.087 189.663 217.912 181.663 220.877 173.217L221.576 171.231C224.681 162.252 227.841 152.547 229.799 142.59C230.191 140.52 230.191 138.646 230.163 136.576C230.163 136.297 230.331 136.017 230.582 135.905C230.862 135.793 231.142 135.849 231.366 136.073C232.792 137.555 234.107 138.898 235.869 140.072C244.316 145.75 253.378 150.365 261.936 154.533L263.838 155.456C271.922 159.344 279.529 163.008 284.788 170.895C289.626 178.139 292.144 186.95 292.144 196.348C292.144 206.78 291.612 218.22 290.661 230.331C290.661 230.555 290.522 230.778 290.326 230.89C290.13 231.002 289.878 231.03 289.682 230.918C279.697 226.303 272.565 224.989 268.425 226.946C264.006 228.401 259.839 234.442 255.979 244.875C255.895 245.099 255.727 245.239 255.503 245.323C255.447 245.323 255.392 245.323 255.336 245.323L255.28 245.267ZM231.533 138.254C231.533 139.765 231.449 141.219 231.114 142.813C229.156 152.883 225.967 162.616 222.835 171.65L222.136 173.636C219.227 181.915 216.486 189.719 218.276 198.641C219.926 206.92 224.233 214.668 230.694 221.129C237.855 228.233 245.994 235.729 254.944 243.365C258.86 233.072 263.195 227.086 267.838 225.576C272.145 223.534 279.39 224.737 289.291 229.156C290.214 217.437 290.689 206.389 290.689 196.292C290.689 187.146 288.256 178.615 283.585 171.622C278.55 164.043 271.083 160.462 263.195 156.686L261.265 155.763C252.678 151.596 243.532 146.953 235.03 141.219C233.687 140.324 232.568 139.317 231.505 138.282L231.533 138.254Z" fill="white"/>
</g>
<defs>
<clipPath id="clip0_4_18">
<rect width="595" height="595" fill="white"/>
</clipPath>
</defs>
</svg>
